<svg width="16" height="16" viewBox="0 0 16 16" fill="none" xmlns="http://www.w3.org/2000/svg">
<circle cx="8" cy="8" r="8" fill="#FEEBC1"/>
<line x1="4.49988" y1="4.5" x2="4.49988" y2="7.5" stroke="#2A321B" stroke-linecap="round"/>
<line x1="11.1665" y1="4.5" x2="11.1665" y2="7.5" stroke="#2A321B" stroke-linecap="round"/>
<mask id="path-4-inside-1_10_76" fill="white">
<path d="M3.99988 9.99998C3.99988 10.884 4.42131 11.7319 5.17145 12.357C5.9216 12.9821 6.93901 13.3333 7.99988 13.3333C9.06074 13.3333 10.0782 12.9821 10.8283 12.357C11.5785 11.7319 11.9999 10.884 11.9999 9.99998L10.8631 9.99998C10.8631 10.6328 10.5614 11.2397 10.0245 11.6871C9.48751 12.1346 8.75925 12.386 7.99988 12.386C7.24051 12.386 6.51224 12.1346 5.97529 11.6871C5.43833 11.2397 5.13667 10.6328 5.13667 9.99998H3.99988Z"/>
</mask>
<path d="M3.99988 9.99998C3.99988 10.884 4.42131 11.7319 5.17145 12.357C5.9216 12.9821 6.93901 13.3333 7.99988 13.3333C9.06074 13.3333 10.0782 12.9821 10.8283 12.357C11.5785 11.7319 11.9999 10.884 11.9999 9.99998L10.8631 9.99998C10.8631 10.6328 10.5614 11.2397 10.0245 11.6871C9.48751 12.1346 8.75925 12.386 7.99988 12.386C7.24051 12.386 6.51224 12.1346 5.97529 11.6871C5.43833 11.2397 5.13667 10.6328 5.13667 9.99998H3.99988Z" stroke="#2A321B" stroke-width="2" mask="url(#path-4-inside-1_10_76)"/>
</svg>
