<svg width="16" height="16" viewBox="0 0 16 16" fill="none" xmlns="http://www.w3.org/2000/svg">
<circle cx="8" cy="8" r="8" fill="#CBD3B1"/>
<mask id="path-2-inside-1_10_70" fill="white">
<path d="M3.99988 9.33331C3.99988 10.3942 4.42131 11.4116 5.17145 12.1617C5.9216 12.9119 6.93901 13.3333 7.99988 13.3333C9.06074 13.3333 10.0782 12.9119 10.8283 12.1617C11.5785 11.4116 11.9999 10.3942 11.9999 9.33331L10.8631 9.33331C10.8631 10.0927 10.5614 10.8209 10.0245 11.3579C9.48751 11.8949 8.75925 12.1965 7.99988 12.1965C7.24051 12.1965 6.51224 11.8949 5.97529 11.3579C5.43833 10.8209 5.13667 10.0927 5.13667 9.33331H3.99988Z"/>
</mask>
<path d="M3.99988 9.33331C3.99988 10.3942 4.42131 11.4116 5.17145 12.1617C5.9216 12.9119 6.93901 13.3333 7.99988 13.3333C9.06074 13.3333 10.0782 12.9119 10.8283 12.1617C11.5785 11.4116 11.9999 10.3942 11.9999 9.33331L10.8631 9.33331C10.8631 10.0927 10.5614 10.8209 10.0245 11.3579C9.48751 11.8949 8.75925 12.1965 7.99988 12.1965C7.24051 12.1965 6.51224 11.8949 5.97529 11.3579C5.43833 10.8209 5.13667 10.0927 5.13667 9.33331H3.99988Z" stroke="#3B4823" stroke-width="2" mask="url(#path-2-inside-1_10_70)"/>
<mask id="path-3-inside-2_10_70" fill="white">
<path d="M2.66659 7.99998C2.66659 7.82488 2.70107 7.6515 2.76808 7.48974C2.83509 7.32797 2.9333 7.18098 3.05711 7.05717C3.18092 6.93336 3.32791 6.83515 3.48967 6.76814C3.65144 6.70113 3.82482 6.66665 3.99992 6.66665C4.17501 6.66665 4.3484 6.70113 4.51016 6.76814C4.67193 6.83515 4.81892 6.93336 4.94273 7.05717C5.06654 7.18098 5.16475 7.32797 5.23176 7.48974C5.29876 7.6515 5.33325 7.82488 5.33325 7.99998L4.53325 7.99998C4.53325 7.92994 4.51946 7.86059 4.49265 7.79588C4.46585 7.73117 4.42657 7.67238 4.37704 7.62286C4.32752 7.57333 4.26872 7.53405 4.20402 7.50724C4.13931 7.48044 4.06996 7.46665 3.99992 7.46665C3.92988 7.46665 3.86053 7.48044 3.79582 7.50724C3.73111 7.53405 3.67232 7.57333 3.62279 7.62286C3.57327 7.67238 3.53399 7.73117 3.50718 7.79588C3.48038 7.86059 3.46659 7.92994 3.46659 7.99998H2.66659Z"/>
</mask>
<path d="M2.66659 7.99998C2.66659 7.82488 2.70107 7.6515 2.76808 7.48974C2.83509 7.32797 2.9333 7.18098 3.05711 7.05717C3.18092 6.93336 3.32791 6.83515 3.48967 6.76814C3.65144 6.70113 3.82482 6.66665 3.99992 6.66665C4.17501 6.66665 4.3484 6.70113 4.51016 6.76814C4.67193 6.83515 4.81892 6.93336 4.94273 7.05717C5.06654 7.18098 5.16475 7.32797 5.23176 7.48974C5.29876 7.6515 5.33325 7.82488 5.33325 7.99998L4.53325 7.99998C4.53325 7.92994 4.51946 7.86059 4.49265 7.79588C4.46585 7.73117 4.42657 7.67238 4.37704 7.62286C4.32752 7.57333 4.26872 7.53405 4.20402 7.50724C4.13931 7.48044 4.06996 7.46665 3.99992 7.46665C3.92988 7.46665 3.86053 7.48044 3.79582 7.50724C3.73111 7.53405 3.67232 7.57333 3.62279 7.62286C3.57327 7.67238 3.53399 7.73117 3.50718 7.79588C3.48038 7.86059 3.46659 7.92994 3.46659 7.99998H2.66659Z" fill="#D9D9D9" stroke="#3B4823" stroke-width="2" mask="url(#path-3-inside-2_10_70)"/>
<mask id="path-4-inside-3_10_70" fill="white">
<path d="M10.6666 7.99998C10.6666 7.82488 10.7011 7.6515 10.7681 7.48974C10.8351 7.32797 10.9333 7.18098 11.0571 7.05717C11.1809 6.93336 11.3279 6.83515 11.4897 6.76814C11.6514 6.70113 11.8248 6.66665 11.9999 6.66665C12.175 6.66665 12.3484 6.70113 12.5102 6.76814C12.6719 6.83515 12.8189 6.93336 12.9427 7.05717C13.0665 7.18098 13.1648 7.32797 13.2318 7.48974C13.2988 7.6515 13.3333 7.82488 13.3333 7.99998L12.5333 7.99998C12.5333 7.92994 12.5195 7.86059 12.4927 7.79588C12.4659 7.73117 12.4266 7.67238 12.377 7.62286C12.3275 7.57333 12.2687 7.53405 12.204 7.50724C12.1393 7.48044 12.07 7.46665 11.9999 7.46665C11.9299 7.46665 11.8605 7.48044 11.7958 7.50724C11.7311 7.53405 11.6723 7.57333 11.6228 7.62286C11.5733 7.67238 11.534 7.73117 11.5072 7.79588C11.4804 7.86059 11.4666 7.92994 11.4666 7.99998H10.6666Z"/>
</mask>
<path d="M10.6666 7.99998C10.6666 7.82488 10.7011 7.6515 10.7681 7.48974C10.8351 7.32797 10.9333 7.18098 11.0571 7.05717C11.1809 6.93336 11.3279 6.83515 11.4897 6.76814C11.6514 6.70113 11.8248 6.66665 11.9999 6.66665C12.175 6.66665 12.3484 6.70113 12.5102 6.76814C12.6719 6.83515 12.8189 6.93336 12.9427 7.05717C13.0665 7.18098 13.1648 7.32797 13.2318 7.48974C13.2988 7.6515 13.3333 7.82488 13.3333 7.99998L12.5333 7.99998C12.5333 7.92994 12.5195 7.86059 12.4927 7.79588C12.4659 7.73117 12.4266 7.67238 12.377 7.62286C12.3275 7.57333 12.2687 7.53405 12.204 7.50724C12.1393 7.48044 12.07 7.46665 11.9999 7.46665C11.9299 7.46665 11.8605 7.48044 11.7958 7.50724C11.7311 7.53405 11.6723 7.57333 11.6228 7.62286C11.5733 7.67238 11.534 7.73117 11.5072 7.79588C11.4804 7.86059 11.4666 7.92994 11.4666 7.99998H10.6666Z" fill="#D9D9D9" stroke="#3B4823" stroke-width="2" mask="url(#path-4-inside-3_10_70)"/>
</svg>
