<svg width="88" height="16" viewBox="0 0 88 16" fill="none" xmlns="http://www.w3.org/2000/svg">
<circle cx="80" cy="8" r="8" fill="#CBD3B1"/>
<mask id="path-2-inside-1_18_161" fill="white">
<path d="M75.9999 9.33331C75.9999 10.3942 76.4213 11.4116 77.1715 12.1617C77.9216 12.9119 78.939 13.3333 79.9999 13.3333C81.0607 13.3333 82.0782 12.9119 82.8283 12.1617C83.5785 11.4116 83.9999 10.3942 83.9999 9.33331L82.8631 9.33331C82.8631 10.0927 82.5614 10.8209 82.0245 11.3579C81.4875 11.8949 80.7592 12.1965 79.9999 12.1965C79.2405 12.1965 78.5122 11.8949 77.9753 11.3579C77.4383 10.8209 77.1367 10.0927 77.1367 9.33331H75.9999Z"/>
</mask>
<path d="M75.9999 9.33331C75.9999 10.3942 76.4213 11.4116 77.1715 12.1617C77.9216 12.9119 78.939 13.3333 79.9999 13.3333C81.0607 13.3333 82.0782 12.9119 82.8283 12.1617C83.5785 11.4116 83.9999 10.3942 83.9999 9.33331L82.8631 9.33331C82.8631 10.0927 82.5614 10.8209 82.0245 11.3579C81.4875 11.8949 80.7592 12.1965 79.9999 12.1965C79.2405 12.1965 78.5122 11.8949 77.9753 11.3579C77.4383 10.8209 77.1367 10.0927 77.1367 9.33331H75.9999Z" stroke="#3B4823" stroke-width="2" mask="url(#path-2-inside-1_18_161)"/>
<mask id="path-3-inside-2_18_161" fill="white">
<path d="M74.6666 7.99998C74.6666 7.82488 74.7011 7.6515 74.7681 7.48974C74.8351 7.32797 74.9333 7.18098 75.0571 7.05717C75.1809 6.93336 75.3279 6.83515 75.4897 6.76814C75.6514 6.70113 75.8248 6.66665 75.9999 6.66665C76.175 6.66665 76.3484 6.70113 76.5102 6.76814C76.6719 6.83515 76.8189 6.93336 76.9427 7.05717C77.0665 7.18098 77.1648 7.32797 77.2318 7.48974C77.2988 7.6515 77.3333 7.82488 77.3333 7.99998L76.5333 7.99998C76.5333 7.92994 76.5195 7.86059 76.4927 7.79588C76.4659 7.73117 76.4266 7.67238 76.377 7.62286C76.3275 7.57333 76.2687 7.53405 76.204 7.50724C76.1393 7.48044 76.07 7.46665 75.9999 7.46665C75.9299 7.46665 75.8605 7.48044 75.7958 7.50724C75.7311 7.53405 75.6723 7.57333 75.6228 7.62286C75.5733 7.67238 75.534 7.73117 75.5072 7.79588C75.4804 7.86059 75.4666 7.92994 75.4666 7.99998H74.6666Z"/>
</mask>
<path d="M74.6666 7.99998C74.6666 7.82488 74.7011 7.6515 74.7681 7.48974C74.8351 7.32797 74.9333 7.18098 75.0571 7.05717C75.1809 6.93336 75.3279 6.83515 75.4897 6.76814C75.6514 6.70113 75.8248 6.66665 75.9999 6.66665C76.175 6.66665 76.3484 6.70113 76.5102 6.76814C76.6719 6.83515 76.8189 6.93336 76.9427 7.05717C77.0665 7.18098 77.1648 7.32797 77.2318 7.48974C77.2988 7.6515 77.3333 7.82488 77.3333 7.99998L76.5333 7.99998C76.5333 7.92994 76.5195 7.86059 76.4927 7.79588C76.4659 7.73117 76.4266 7.67238 76.377 7.62286C76.3275 7.57333 76.2687 7.53405 76.204 7.50724C76.1393 7.48044 76.07 7.46665 75.9999 7.46665C75.9299 7.46665 75.8605 7.48044 75.7958 7.50724C75.7311 7.53405 75.6723 7.57333 75.6228 7.62286C75.5733 7.67238 75.534 7.73117 75.5072 7.79588C75.4804 7.86059 75.4666 7.92994 75.4666 7.99998H74.6666Z" fill="#D9D9D9" stroke="#3B4823" stroke-width="2" mask="url(#path-3-inside-2_18_161)"/>
<mask id="path-4-inside-3_18_161" fill="white">
<path d="M82.6666 7.99998C82.6666 7.82488 82.7011 7.6515 82.7681 7.48974C82.8351 7.32797 82.9333 7.18098 83.0571 7.05717C83.1809 6.93336 83.3279 6.83515 83.4897 6.76814C83.6514 6.70113 83.8248 6.66665 83.9999 6.66665C84.175 6.66665 84.3484 6.70113 84.5102 6.76814C84.6719 6.83515 84.8189 6.93336 84.9427 7.05717C85.0665 7.18098 85.1648 7.32797 85.2318 7.48974C85.2988 7.6515 85.3333 7.82488 85.3333 7.99998L84.5333 7.99998C84.5333 7.92994 84.5195 7.86059 84.4927 7.79588C84.4659 7.73117 84.4266 7.67238 84.377 7.62286C84.3275 7.57333 84.2687 7.53405 84.204 7.50724C84.1393 7.48044 84.07 7.46665 83.9999 7.46665C83.9299 7.46665 83.8605 7.48044 83.7958 7.50724C83.7311 7.53405 83.6723 7.57333 83.6228 7.62286C83.5733 7.67238 83.534 7.73117 83.5072 7.79588C83.4804 7.86059 83.4666 7.92994 83.4666 7.99998H82.6666Z"/>
</mask>
<path d="M82.6666 7.99998C82.6666 7.82488 82.7011 7.6515 82.7681 7.48974C82.8351 7.32797 82.9333 7.18098 83.0571 7.05717C83.1809 6.93336 83.3279 6.83515 83.4897 6.76814C83.6514 6.70113 83.8248 6.66665 83.9999 6.66665C84.175 6.66665 84.3484 6.70113 84.5102 6.76814C84.6719 6.83515 84.8189 6.93336 84.9427 7.05717C85.0665 7.18098 85.1648 7.32797 85.2318 7.48974C85.2988 7.6515 85.3333 7.82488 85.3333 7.99998L84.5333 7.99998C84.5333 7.92994 84.5195 7.86059 84.4927 7.79588C84.4659 7.73117 84.4266 7.67238 84.377 7.62286C84.3275 7.57333 84.2687 7.53405 84.204 7.50724C84.1393 7.48044 84.07 7.46665 83.9999 7.46665C83.9299 7.46665 83.8605 7.48044 83.7958 7.50724C83.7311 7.53405 83.6723 7.57333 83.6228 7.62286C83.5733 7.67238 83.534 7.73117 83.5072 7.79588C83.4804 7.86059 83.4666 7.92994 83.4666 7.99998H82.6666Z" fill="#D9D9D9" stroke="#3B4823" stroke-width="2" mask="url(#path-4-inside-3_18_161)"/>
<circle cx="56" cy="8" r="8" fill="#FEEBC1"/>
<line x1="52.4999" y1="4.5" x2="52.4999" y2="7.5" stroke="#2A321B" stroke-linecap="round"/>
<line x1="59.1665" y1="4.5" x2="59.1665" y2="7.5" stroke="#2A321B" stroke-linecap="round"/>
<mask id="path-8-inside-4_18_161" fill="white">
<path d="M51.9999 9.99998C51.9999 10.884 52.4213 11.7319 53.1715 12.357C53.9216 12.9821 54.939 13.3333 55.9999 13.3333C57.0607 13.3333 58.0782 12.9821 58.8283 12.357C59.5785 11.7319 59.9999 10.884 59.9999 9.99998L58.8631 9.99998C58.8631 10.6328 58.5614 11.2397 58.0245 11.6871C57.4875 12.1346 56.7592 12.386 55.9999 12.386C55.2405 12.386 54.5122 12.1346 53.9753 11.6871C53.4383 11.2397 53.1367 10.6328 53.1367 9.99998H51.9999Z"/>
</mask>
<path d="M51.9999 9.99998C51.9999 10.884 52.4213 11.7319 53.1715 12.357C53.9216 12.9821 54.939 13.3333 55.9999 13.3333C57.0607 13.3333 58.0782 12.9821 58.8283 12.357C59.5785 11.7319 59.9999 10.884 59.9999 9.99998L58.8631 9.99998C58.8631 10.6328 58.5614 11.2397 58.0245 11.6871C57.4875 12.1346 56.7592 12.386 55.9999 12.386C55.2405 12.386 54.5122 12.1346 53.9753 11.6871C53.4383 11.2397 53.1367 10.6328 53.1367 9.99998H51.9999Z" stroke="#2A321B" stroke-width="2" mask="url(#path-8-inside-4_18_161)"/>
<circle cx="32" cy="8" r="8" fill="#B59A8E"/>
<line x1="28.0001" y1="11.5" x2="36.0001" y2="11.5" stroke="#4A3325"/>
<line x1="28.5001" y1="4.5" x2="28.5001" y2="7.5" stroke="#4A3325" stroke-linecap="round"/>
<line x1="35.1667" y1="4.5" x2="35.1667" y2="7.5" stroke="#4A3325" stroke-linecap="round"/>
<circle cx="8" cy="8" r="8" fill="#FDAE90"/>
<line x1="4.50012" y1="4.5" x2="4.50012" y2="7.5" stroke="#712A01" stroke-linecap="round"/>
<line x1="11.1667" y1="4.5" x2="11.1667" y2="7.5" stroke="#712A01" stroke-linecap="round"/>
<mask id="path-16-inside-5_18_161" fill="white">
<path d="M12.0001 12.6666C12.0001 11.7826 11.5787 10.9347 10.8285 10.3096C10.0784 9.6845 9.06099 9.33331 8.00012 9.33331C6.93926 9.33331 5.92184 9.6845 5.1717 10.3096C4.42155 10.9347 4.00012 11.7826 4.00012 12.6666L5.13692 12.6666C5.13692 12.0338 5.43858 11.4269 5.97553 10.9795C6.51249 10.532 7.24075 10.2806 8.00012 10.2806C8.75949 10.2806 9.48776 10.532 10.0247 10.9795C10.5617 11.4269 10.8633 12.0338 10.8633 12.6666H12.0001Z"/>
</mask>
<path d="M12.0001 12.6666C12.0001 11.7826 11.5787 10.9347 10.8285 10.3096C10.0784 9.6845 9.06099 9.33331 8.00012 9.33331C6.93926 9.33331 5.92184 9.6845 5.1717 10.3096C4.42155 10.9347 4.00012 11.7826 4.00012 12.6666L5.13692 12.6666C5.13692 12.0338 5.43858 11.4269 5.97553 10.9795C6.51249 10.532 7.24075 10.2806 8.00012 10.2806C8.75949 10.2806 9.48776 10.532 10.0247 10.9795C10.5617 11.4269 10.8633 12.0338 10.8633 12.6666H12.0001Z" stroke="#712A01" stroke-width="2" mask="url(#path-16-inside-5_18_161)"/>
</svg>
