<svg width="16" height="16" viewBox="0 0 16 16" fill="none" xmlns="http://www.w3.org/2000/svg">
<circle cx="8" cy="8" r="8" fill="#FDAE90"/>
<line x1="4.50012" y1="4.5" x2="4.50012" y2="7.5" stroke="#712A01" stroke-linecap="round"/>
<line x1="11.1667" y1="4.5" x2="11.1667" y2="7.5" stroke="#712A01" stroke-linecap="round"/>
<mask id="path-4-inside-1_10_63" fill="white">
<path d="M12.0001 12.6666C12.0001 11.7826 11.5787 10.9347 10.8285 10.3096C10.0784 9.6845 9.06099 9.33331 8.00012 9.33331C6.93926 9.33331 5.92184 9.6845 5.1717 10.3096C4.42155 10.9347 4.00012 11.7826 4.00012 12.6666L5.13692 12.6666C5.13692 12.0338 5.43858 11.4269 5.97553 10.9795C6.51249 10.532 7.24075 10.2806 8.00012 10.2806C8.75949 10.2806 9.48776 10.532 10.0247 10.9795C10.5617 11.4269 10.8633 12.0338 10.8633 12.6666H12.0001Z"/>
</mask>
<path d="M12.0001 12.6666C12.0001 11.7826 11.5787 10.9347 10.8285 10.3096C10.0784 9.6845 9.06099 9.33331 8.00012 9.33331C6.93926 9.33331 5.92184 9.6845 5.1717 10.3096C4.42155 10.9347 4.00012 11.7826 4.00012 12.6666L5.13692 12.6666C5.13692 12.0338 5.43858 11.4269 5.97553 10.9795C6.51249 10.532 7.24075 10.2806 8.00012 10.2806C8.75949 10.2806 9.48776 10.532 10.0247 10.9795C10.5617 11.4269 10.8633 12.0338 10.8633 12.6666H12.0001Z" stroke="#712A01" stroke-width="2" mask="url(#path-4-inside-1_10_63)"/>
</svg>
